<?xml version="1.0" encoding="utf-8"?>
<svg version="1.1"   xmlns="http://www.w3.org/2000/svg" xmlns:xlink="http://www.w3.org/1999/xlink" x="0px" y="0px"
	 viewBox="0 0 67 30" style="enable-background:new 0 0 67 30; fill:#57bd84;" xml:space="preserve">
<title>Springload</title>
<path d="M40.4,0.9c-6.8,0-12.4,5.5-12.4,12.3v0.4V16c-0.2,4-3.4,7.2-7.4,7.4c-3.2,0-4.4-1.2-5.7-3.7c3.4-1.7,5.8-5.2,5.8-9.3
	C20.7,4.6,16.1,0,10.3,0C4.6,0,0,4.6,0,10.3c0,4.8,3.3,8.9,7.8,10c1.7,6.1,6.3,9.6,12.8,9.6c7.5,0,14.2-5.5,14.2-13.6v-1.2
	c4,2.4,6.5,3,9.9,3c11.2,0,18.9-9.6,21.7-17.1L40.4,0.9z M6.3,10.3c0-2.3,1.8-4.1,4.1-4.1c2.3,0,4.1,1.8,4.1,4.1s-1.8,4.1-4.1,4.1
	C8.1,14.4,6.3,12.6,6.3,10.3z"/>
</svg>
